<svg width="112" height="67" viewBox="0 0 112 67" fill="none" xmlns="http://www.w3.org/2000/svg">
<g clip-path="url(#clip0_146_77189)">
<g clip-path="url(#clip1_146_77189)">
<path d="M15.6552 21.5907C8.04829 21.5907 1.70947 24.8179 1.70947 34.5543C1.70947 42.2677 5.97187 47.1251 15.8516 47.1251C27.4805 47.1251 28.226 39.4648 28.226 39.4648H22.5912C22.5912 39.4648 21.3831 43.5896 15.5079 43.5896C10.7227 43.5896 7.28098 40.357 7.28098 35.8261H28.8152V32.983C28.8152 28.5005 25.9697 21.5907 15.6552 21.5907ZM15.4588 25.2244C20.0138 25.2244 23.1191 28.0149 23.1191 32.1973H7.40561C7.40561 27.7572 11.4588 25.2244 15.4588 25.2244Z" fill="black"></path>
<path d="M28.8108 12.1626V42.2355C28.8108 43.9425 28.689 46.3394 28.689 46.3394H34.0633C34.0633 46.3394 34.2562 44.6179 34.2562 43.0447C34.2562 43.0447 36.9115 47.1987 44.1314 47.1987C51.7343 47.1987 56.8986 41.9203 56.8986 34.3579C56.8986 27.3227 52.155 21.6643 44.1437 21.6643C36.6417 21.6643 34.3105 25.7155 34.3105 25.7155V12.1626H28.8108ZM42.7565 25.384C47.9194 25.384 51.2025 29.2158 51.2025 34.3579C51.2025 39.8718 47.4107 43.4791 42.7933 43.4791C37.2829 43.4791 34.3105 39.1766 34.3105 34.407C34.3105 29.9627 36.9778 25.384 42.7565 25.384Z" fill="black"></path>
<path d="M70.2554 21.5907C58.8114 21.5907 58.0775 27.8569 58.0775 28.8582H63.7736C63.7736 28.8582 64.0723 25.1999 69.8626 25.1999C73.6252 25.1999 76.5408 26.9221 76.5408 30.2331V31.4116H69.8626C60.9967 31.4116 56.3097 34.0052 56.3097 39.2684C56.3097 44.448 60.6404 47.2663 66.4928 47.2663C74.4686 47.2663 77.038 42.8591 77.038 42.8591C77.038 44.612 77.1731 46.3394 77.1731 46.3394H82.2369C82.2369 46.3394 82.0405 44.1983 82.0405 42.8284V30.9881C82.0405 23.2245 75.7784 21.5907 70.2554 21.5907ZM76.5408 34.9471V36.5185C76.5408 38.568 75.2761 43.6632 67.8309 43.6632C63.7539 43.6632 62.0058 41.6285 62.0058 39.2684C62.0058 34.9748 67.8925 34.9471 76.5408 34.9471Z" fill="black"></path>
<path d="M78.9729 22.5737H85.3811L94.5776 40.9985L103.753 22.5737H109.558L92.8449 55.3756H86.756L91.5787 46.2316L78.9729 22.5737Z" fill="black"></path>
</g>
</g>
<defs>
<clipPath id="clip0_146_77189">
<rect width="111.267" height="66.3844" fill="white" transform="translate(0 0.241943)"></rect>
</clipPath>
<clipPath id="clip1_146_77189">
<rect width="107.921" height="43.285" fill="white" transform="translate(1.67322 12.1266)"></rect>
</clipPath>
</defs>
</svg>
