<svg width="93" height="67" viewBox="0 0 93 67" fill="none" xmlns="http://www.w3.org/2000/svg">
<g clip-path="url(#clip0_146_77253)">
<g clip-path="url(#clip1_146_77253)">
<path d="M12.1569 37.3506C12.1569 39.7166 10.5209 41.3274 6.94685 41.3274H0.201416V26.6284H6.74549C9.86652 26.6284 11.5529 28.0379 11.5529 30.4542C11.5529 32.1657 10.5461 33.3739 8.98558 33.7766C11.0243 34.2044 12.1821 35.5888 12.1569 37.3506ZM4.25371 32.7194H5.83939C6.89651 32.7194 7.52575 32.3167 7.52575 31.31C7.52575 30.3032 6.87134 29.9005 5.83939 29.9005H4.25371C4.25371 29.9256 4.25371 32.7194 4.25371 32.7194ZM4.25371 37.9547H6.36795C7.3999 37.9547 7.95363 37.5017 7.95363 36.6459C7.95363 35.7901 7.37473 35.3371 6.36795 35.3371H4.25371C4.25371 35.3622 4.25371 37.9547 4.25371 37.9547Z" fill="black"></path>
<path d="M21.0418 39.1628C20.7146 40.6981 19.5316 41.6042 17.5684 41.6042C15.4793 41.6042 13.9943 40.2954 13.9943 37.5771V29.7745H18.0466V36.7465C18.0466 37.9043 18.3738 38.5839 19.3051 38.5839C20.3622 38.5839 20.9914 37.6274 20.9914 35.7649V29.7745H25.0437V41.3022H21.4193L21.0418 39.1628Z" fill="black"></path>
<path d="M30.0532 37.3507C30.2797 38.3071 31.0096 38.8105 31.8905 38.8105C32.6204 38.8105 33.1238 38.5588 33.1238 38.0554C33.1238 37.5521 32.696 37.3255 31.8654 37.1493L30.3048 36.8221C28.2158 36.3691 27.1083 35.2868 27.1083 33.3991C27.1083 30.6053 29.4994 29.4978 32.0667 29.4978C34.8354 29.4978 36.4965 30.6556 36.9244 32.795L33.2497 33.3487C33.1238 32.6943 32.7211 32.3168 31.9409 32.3168C31.362 32.3168 30.9593 32.5937 30.9593 33.0467C30.9593 33.4998 31.2865 33.7263 31.8905 33.827L33.4259 34.129C35.968 34.5569 37.0503 35.9412 37.0503 37.8793C37.0503 40.5976 34.6843 41.6547 31.8402 41.6547C29.2226 41.6547 27.4607 40.6982 26.8315 38.6595L30.0532 37.3507Z" fill="black"></path>
<path d="M40.7999 24.7911C42.008 24.7911 43.0148 25.6217 43.0148 26.9054C43.0148 28.2142 41.9829 29.0196 40.7999 29.0196C39.5918 29.0196 38.585 28.189 38.585 26.9054C38.5598 25.6217 39.5918 24.7911 40.7999 24.7911ZM42.8135 29.7747V41.3024H38.7863V29.7747H42.8135Z" fill="black"></path>
<path d="M49.1307 32.0147C49.7348 30.3032 51.0688 29.5229 52.8055 29.5229C54.5674 29.5229 56.1782 30.5801 56.1782 33.2229V41.3275H52.1511V34.7582C52.1511 33.5752 51.7987 32.8705 50.7668 32.8705C49.8858 32.8705 49.1559 33.3991 49.1559 35.1609V41.3275H45.1288V29.7998H48.7532L49.1307 32.0147Z" fill="black"></path>
<path d="M65.3646 37.1493L68.7121 38.2064C68.0577 40.6731 66.019 41.6295 63.7286 41.6295C60.3055 41.6295 57.8137 39.4649 57.8137 35.6895C57.8137 31.7882 60.0035 29.5229 63.6279 29.5229C67.0509 29.5229 68.8128 31.7127 68.8128 34.9092C68.8128 35.3371 68.8128 35.8405 68.7625 36.3691H61.715C61.7905 37.7786 62.4953 38.5588 63.6782 38.5588C64.5088 38.5588 65.0877 38.1561 65.3646 37.1493ZM64.9619 34.3052C64.9619 33.2984 64.6095 32.4426 63.4769 32.4426C62.4953 32.4426 61.8912 33.248 61.7905 34.3052H64.9619Z" fill="black"></path>
<path d="M73.3943 37.3507C73.6208 38.3071 74.3508 38.8105 75.2317 38.8105C75.9616 38.8105 76.465 38.5588 76.465 38.0554C76.465 37.5521 76.0371 37.3255 75.2065 37.1493L73.6712 36.8221C71.5821 36.3691 70.4747 35.2868 70.4747 33.3991C70.4747 30.6053 72.8658 29.4978 75.433 29.4978C78.2017 29.4978 79.8629 30.6556 80.2908 32.795L76.616 33.3487C76.4902 32.6943 76.0875 32.3168 75.3072 32.3168C74.7283 32.3168 74.3256 32.5937 74.3256 33.0467C74.3256 33.4998 74.6528 33.7263 75.2569 33.827L76.8174 34.129C79.3595 34.5569 80.4166 35.9412 80.4166 37.8793C80.4166 40.5976 78.0507 41.6547 75.2065 41.6547C72.5889 41.6547 70.827 40.6982 70.1978 38.6595L73.3943 37.3507Z" fill="black"></path>
<path d="M84.9969 37.3507C85.2235 38.3071 85.9534 38.8105 86.8343 38.8105C87.5642 38.8105 88.0676 38.5588 88.0676 38.0554C88.0676 37.5521 87.6397 37.3255 86.8092 37.1493L85.2738 36.8221C83.1847 36.3691 82.0773 35.2868 82.0773 33.3991C82.0773 30.6053 84.4684 29.4978 87.0357 29.4978C89.8043 29.4978 91.4655 30.6556 91.8934 32.795L88.2186 33.3487C88.0928 32.6943 87.6901 32.3168 86.9098 32.3168C86.3309 32.3168 85.9282 32.5937 85.9282 33.0467C85.9282 33.4998 86.2554 33.7263 86.8595 33.827L88.3948 34.129C90.937 34.5569 92.0192 35.9412 92.0192 37.8793C92.0192 40.5976 89.6533 41.6547 86.8092 41.6547C84.1915 41.6547 82.4297 40.6982 81.8004 38.6595L84.9969 37.3507Z" fill="black"></path>
<path d="M8.43185 59.1223C7.95363 58.7196 7.77745 58.1659 7.60126 57.4863L7.14821 55.6741C6.89651 54.617 6.46863 54.4156 5.53736 54.4156H4.25371V59.1223H0.201416V44.4233H6.4938C9.79101 44.4233 12.0563 45.707 12.0563 49.0545C12.0563 51.3701 10.5461 52.5279 8.93524 52.8048C10.2944 53.1068 10.974 53.6857 11.3263 54.9694L12.0311 57.4863C12.2073 58.1407 12.4086 58.6441 12.9372 59.1475L8.43185 59.1223ZM4.27888 51.1184H5.86456C7.29922 51.1184 7.90329 50.5395 7.90329 49.5076C7.90329 48.4505 7.27405 47.8716 5.86456 47.8716H4.27888V51.1184Z" fill="black"></path>
<path d="M20.7142 54.9442L24.0617 56.0014C23.4073 58.468 21.3686 59.4244 19.0782 59.4244C15.6551 59.4244 13.1633 57.2598 13.1633 53.4844C13.1633 49.5831 15.3531 47.3179 18.9775 47.3179C22.4005 47.3179 24.1624 49.5076 24.1624 52.7041C24.1624 53.132 24.1624 53.6354 24.1121 54.164H17.0646C17.1401 55.5735 17.8449 56.3537 19.0278 56.3537C19.8836 56.3537 20.4373 56.0014 20.7142 54.9442ZM20.3366 52.1001C20.3366 51.0933 19.9843 50.2375 18.8516 50.2375C17.87 50.2375 17.266 51.043 17.1653 52.1001H20.3366Z" fill="black"></path>
<path d="M24.7164 47.5947H28.9701L30.3041 52.2511C30.7823 53.9123 31.034 55.0952 31.034 55.0701H31.0843C31.0843 55.0701 31.336 53.9123 31.8646 52.2511L33.3748 47.5947H37.3012L33.0979 59.1224H28.7687L24.7164 47.5947Z" fill="black"></path>
<path d="M40.5473 42.5859C41.7554 42.5859 42.7622 43.4165 42.7622 44.7002C42.7622 45.9838 41.7302 46.8144 40.5473 46.8144C39.3391 46.8144 38.3323 45.9838 38.3323 44.7002C38.3323 43.4165 39.3643 42.6111 40.5473 42.5859ZM42.586 47.5947V59.1223H38.5589V47.5947H42.586Z" fill="black"></path>
<path d="M51.95 54.9442L55.2975 56.0014C54.6431 58.468 52.6044 59.4244 50.2888 59.4244C46.8657 59.4244 44.3739 57.2598 44.3739 53.4844C44.3739 49.5831 46.5637 47.3179 50.1881 47.3179C53.6112 47.3179 55.373 49.5076 55.373 52.7041C55.373 53.132 55.373 53.6354 55.3227 54.164H48.2752C48.3507 55.5735 49.0555 56.3537 50.2384 56.3537C51.1194 56.3537 51.6983 56.0014 51.95 54.9442ZM51.5724 52.1001C51.5724 51.0933 51.22 50.2375 50.1126 50.2375C49.131 50.2375 48.5017 51.043 48.4262 52.1001H51.5724Z" fill="black"></path>
<path d="M67.0516 47.5947L67.8822 51.6219C68.3101 53.6858 68.5366 55.2463 68.5366 55.2463H68.5869C68.5869 55.2463 68.8386 53.7109 69.3168 51.6722L70.2481 47.5947H74.1746L71.0535 59.1224H66.523L65.8183 55.7497C65.4659 54.0633 65.189 52.0497 65.189 52.0497H65.1387C65.1387 52.0497 64.8618 54.0381 64.5095 55.7497L63.8047 59.1224H59.3245L56.1783 47.5947H60.2558L61.1871 51.6722C61.6653 53.7361 61.917 55.2463 61.917 55.2463H61.9673C61.9673 55.2463 62.1939 53.6858 62.6217 51.6219L63.4523 47.5947H67.0516Z" fill="black"></path>
<path d="M25.6992 19.7068C25.6992 20.2605 25.8503 20.5374 26.2781 20.5626C26.5298 20.5626 26.7815 20.4619 27.0081 20.3361V23.1802C26.4543 23.5829 25.9258 23.7339 25.0197 23.7339C23.4843 23.7339 22.6286 23.0292 22.1755 21.9217C21.5211 23.1299 20.5143 23.7843 18.8531 23.7843C16.7389 23.7843 15.4049 22.5258 15.4049 20.5626C15.4049 18.096 17.1668 16.8375 20.6402 16.8375H21.8231V16.0572C21.8231 15.3021 21.5714 14.7736 20.8415 14.7736C20.1368 14.7736 19.8096 15.2015 19.7592 16.1579L15.9083 15.5538C16.1348 13.1879 17.9722 11.6777 20.9422 11.6777C24.2394 11.6777 25.6741 13.1376 25.6741 15.6545L25.6992 19.7068ZM21.798 18.9014H21.2694C19.8096 18.9014 19.3314 19.3544 19.3314 20.1095C19.3314 20.6633 19.7089 21.066 20.3885 21.0911C21.068 21.0911 21.798 20.7388 21.798 19.6816V18.9014Z" fill="black"></path>
<path d="M36.42 16.5103C35.9418 16.3341 35.6649 16.2082 35.0105 16.2082C34.054 16.2082 32.9214 16.5858 32.9214 18.6245V23.4822H28.8943V11.9546H32.3425L32.7452 14.7987C33.0724 12.8859 34.6833 11.9546 36.6717 11.9546L36.42 16.5103Z" fill="black"></path>
<path d="M37.8049 11.9799H42.0586L43.3674 16.6362C43.8456 18.2974 44.0973 19.4804 44.0973 19.4552H44.1476C44.1476 19.4552 44.3993 18.2974 44.9279 16.6362L46.4129 11.9799H50.3393L46.136 23.5075H41.8069L37.8049 11.9799Z" fill="black"></path>
<path d="M60.9851 19.7068C60.9851 20.2605 61.1361 20.5374 61.564 20.5626C61.8157 20.5626 62.0674 20.4619 62.2939 20.3361V23.1802C61.7402 23.5829 61.2116 23.7339 60.3055 23.7339C58.745 23.7339 57.9144 23.0292 57.4613 21.9217C56.8069 23.1299 55.8001 23.7843 54.139 23.7843C52.0247 23.7843 50.6907 22.5258 50.6907 20.5626C50.6907 18.096 52.4526 16.8375 55.926 16.8375H57.109V16.0572C57.109 15.3021 56.8573 14.7736 56.1274 14.7736C55.4226 14.7736 55.0954 15.2015 55.0451 16.1579L51.1941 15.5538C51.4207 13.1879 53.258 11.6777 56.228 11.6777C59.5252 11.6777 60.9599 13.1376 60.9599 15.6545L60.9851 19.7068ZM57.0838 18.9014H56.5552C55.0954 18.9014 54.6172 19.3544 54.6172 20.1095C54.6172 20.6633 54.9947 21.066 55.6743 21.0911C56.3539 21.0911 57.0838 20.7388 57.0838 19.6816V18.9014Z" fill="black"></path>
<path d="M71.7075 16.5103C71.2293 16.3341 70.9525 16.2082 70.298 16.2082C69.3416 16.2082 68.209 16.5858 68.209 18.6245V23.4822H64.1819V11.9546H67.6301L68.0328 14.7987C68.36 12.8859 69.9708 11.9546 71.9592 11.9546L71.7075 16.5103Z" fill="black"></path>
<path d="M81.3983 8.07849H85.4506V23.5074H81.8011L81.4235 21.519C80.9956 23.0544 79.6365 23.8094 77.8746 23.8094C75.1815 23.8094 73.2686 21.7204 73.2686 17.9701C73.2686 14.094 75.106 11.7029 78.3528 11.7029C79.8378 11.7029 80.9956 12.3825 81.3983 13.4648V8.07849ZM81.4235 16.913C81.4235 15.428 80.6936 14.6477 79.5358 14.6477C78.3528 14.6477 77.3712 15.5287 77.3712 17.8191C77.3712 19.7068 78.1766 20.7136 79.4855 20.7136C80.5174 20.7136 81.4235 19.9333 81.4235 18.3728V16.913Z" fill="black"></path>
<path d="M0.201416 23.5075V8.80847H4.30405V14.2703H9.33796V8.80847H13.4406V23.5075H9.33796V17.8192H4.30405V23.5075H0.201416Z" fill="black"></path>
</g>
</g>
<defs>
<clipPath id="clip0_146_77253">
<rect width="92" height="66.3844" fill="white" transform="translate(0.483398 0.241943)"></rect>
</clipPath>
<clipPath id="clip1_146_77253">
<rect width="92" height="66" fill="white" transform="translate(0.483398 0.434204)"></rect>
</clipPath>
</defs>
</svg>
