<svg width="136" height="67" viewBox="0 0 136 67" fill="none" xmlns="http://www.w3.org/2000/svg">
<g clip-path="url(#clip0_146_77215)">
<g clip-path="url(#clip1_146_77215)">
<path d="M47.4914 32.1659C46.336 31.5274 45.7278 31.0105 45.7278 30.2808C45.7278 29.3382 46.5488 28.7605 47.8562 28.7605C49.3765 28.7605 50.7143 29.399 50.7143 29.399L51.7785 26.1456C51.7785 26.1456 50.8055 25.3855 47.917 25.3855C43.9035 25.3855 41.1062 27.6963 41.1062 30.9193C41.1062 32.7436 42.4137 34.1422 44.1468 35.1456C45.5454 35.9362 46.0319 36.5139 46.0319 37.3348C46.0319 38.2166 45.3326 38.9159 44.0251 38.9159C42.0792 38.9159 40.2549 37.9125 40.2549 37.9125L39.1299 41.1659C39.1299 41.1659 40.8326 42.2909 43.6603 42.2909C47.7954 42.2909 50.7447 40.2537 50.7447 36.6051C50.8055 34.5983 49.2853 33.1997 47.4914 32.1659Z" fill="black"></path>
<path d="M63.9711 25.3247C61.934 25.3247 60.3529 26.2977 59.1063 27.7572L59.0455 27.7268L60.809 18.4835H56.1874L51.7178 41.9869H56.309L57.8292 33.9598C58.4374 30.9193 59.988 29.0646 61.4475 29.0646C62.4813 29.0646 62.8765 29.7639 62.8765 30.7673C62.8765 31.4058 62.8157 32.1659 62.6637 32.8044L60.9306 42.0173H65.5218L67.3157 32.5308C67.5286 31.5274 67.6502 30.3416 67.6502 29.5207C67.711 26.8754 66.3732 25.3247 63.9711 25.3247Z" fill="black"></path>
<path d="M78.11 25.3247C72.5763 25.3247 68.8972 30.3112 68.8972 35.8754C68.8972 39.4328 71.0864 42.3213 75.2215 42.3213C80.6641 42.3213 84.3127 37.4564 84.3127 31.7706C84.3431 28.4565 82.4276 25.3247 78.11 25.3247ZM75.86 38.7639C74.279 38.7639 73.6405 37.426 73.6405 35.7537C73.6405 33.1085 75.0087 28.8213 77.5019 28.8213C79.1438 28.8213 79.6607 30.22 79.6607 31.5882C79.6607 34.4463 78.2925 38.7639 75.86 38.7639Z" fill="black"></path>
<path d="M96.1094 25.3247C93.0081 25.3247 91.2446 28.0612 91.2446 28.0612H91.1838L91.4574 25.5984H87.3831C87.1703 27.2706 86.8054 29.7943 86.4405 31.7098L83.248 48.4936H87.8392L89.1162 41.6828H89.2074C89.2074 41.6828 90.15 42.2909 91.9135 42.2909C97.3257 42.2909 100.853 36.7571 100.853 31.1625C100.853 28.0916 99.4844 25.3247 96.1094 25.3247ZM91.7311 38.8551C90.5453 38.8551 89.846 38.1862 89.846 38.1862L90.6061 33.899C91.1534 31.0409 92.6432 29.1254 94.2243 29.1254C95.623 29.1254 96.0486 30.4328 96.0486 31.649C96.0486 34.5983 94.2851 38.8551 91.7311 38.8551Z" fill="black"></path>
<path d="M107.421 18.7268C105.961 18.7268 104.775 19.8822 104.775 21.4025C104.775 22.7707 105.627 23.7133 106.934 23.7133H106.995C108.424 23.7133 109.671 22.7403 109.701 21.0376C109.732 19.6694 108.819 18.7268 107.421 18.7268Z" fill="black"></path>
<path d="M100.974 41.9868H105.596L108.728 25.6896H104.076L100.974 41.9868Z" fill="black"></path>
<path d="M120.403 25.6592H117.211L117.363 24.899C117.636 23.3179 118.549 21.9193 120.099 21.9193C120.92 21.9193 121.559 22.1625 121.559 22.1625L122.471 18.5747C122.471 18.5747 121.68 18.1794 119.978 18.1794C118.336 18.1794 116.724 18.6355 115.478 19.6997C113.897 21.0375 113.167 22.9531 112.802 24.899L112.68 25.6592H110.552L109.883 29.1254H112.011L109.579 41.9868H114.17L116.603 29.1254H119.765L120.403 25.6592Z" fill="black"></path>
<path d="M131.471 25.6896C131.471 25.6896 128.583 32.9261 127.306 36.8787H127.245C127.154 35.6017 126.12 25.6896 126.12 25.6896H121.285L124.052 40.649C124.113 40.9835 124.083 41.1963 123.961 41.4091C123.414 42.4429 122.532 43.4463 121.468 44.176C120.616 44.8146 119.643 45.2098 118.883 45.4835L120.16 49.3754C121.103 49.1625 123.018 48.4024 124.66 46.8821C126.758 44.9058 128.704 41.8956 130.681 37.7605L136.306 25.6896H131.471Z" fill="black"></path>
<path d="M23.2888 15.1085C23.2888 15.1085 22.8632 15.2301 22.1638 15.4429C22.0422 15.0477 21.8598 14.5916 21.6165 14.1051C20.826 12.5848 19.6402 11.7639 18.2415 11.7639C18.1503 11.7639 18.0591 11.7639 17.9375 11.7943C17.9071 11.7335 17.8463 11.7031 17.8159 11.6423C17.2078 10.9734 16.4172 10.6693 15.4747 10.6997C13.6503 10.7605 11.826 12.0679 10.3666 14.4092C9.33277 16.051 8.54223 18.1186 8.3294 19.7301C6.23143 20.3686 4.77197 20.8247 4.74156 20.8551C3.67738 21.1896 3.64697 21.22 3.52535 22.2233C3.43413 22.9835 0.636841 44.3888 0.636841 44.3888L23.6233 48.3719V15.0781C23.4409 15.0781 23.3496 15.1085 23.2888 15.1085ZM17.9679 16.7504C16.7517 17.1152 15.4138 17.5409 14.1064 17.9362C14.4713 16.5071 15.201 15.0781 16.0524 14.1355C16.3868 13.801 16.8429 13.4058 17.3598 13.1625C17.8767 14.2571 17.9983 15.747 17.9679 16.7504ZM15.4747 11.9463C15.9003 11.9463 16.2652 12.0375 16.5693 12.22C16.0828 12.4632 15.5963 12.8585 15.1402 13.3146C13.9848 14.5612 13.103 16.5071 12.7382 18.3619C11.6436 18.6963 10.549 19.0308 9.54561 19.3348C10.2145 16.4159 12.6774 12.0071 15.4747 11.9463ZM11.9476 28.6693C12.0693 30.6152 17.2078 31.0409 17.5118 35.6321C17.7247 39.2503 15.5963 41.7132 12.5253 41.8956C8.81588 42.1388 6.77872 39.9497 6.77872 39.9497L7.56926 36.6051C7.56926 36.6051 9.60642 38.1557 11.2483 38.0341C12.3125 37.9733 12.7078 37.0916 12.6774 36.4834C12.5253 33.9294 8.3294 34.0814 8.05575 29.8855C7.81251 26.3585 10.1233 22.801 15.2314 22.4666C17.2078 22.345 18.2111 22.8314 18.2111 22.8314L17.0557 27.2098C17.0557 27.2098 15.7483 26.6017 14.1976 26.7233C11.9476 26.8754 11.9172 28.3044 11.9476 28.6693ZM19.1841 16.3855C19.1841 15.4733 19.0625 14.1659 18.6368 13.0713C20.0355 13.345 20.7044 14.8956 21.0084 15.8382C20.4611 15.9902 19.853 16.1727 19.1841 16.3855Z" fill="black"></path>
<path d="M24.323 48.3112L33.8703 45.9396C33.8703 45.9396 29.7656 18.1795 29.7352 17.997C29.7047 17.8146 29.5527 17.693 29.4007 17.693C29.2487 17.693 26.573 17.6322 26.573 17.6322C26.573 17.6322 24.9311 16.0511 24.323 15.443V48.3112Z" fill="black"></path>
</g>
</g>
<defs>
<clipPath id="clip0_146_77215">
<rect width="135" height="66" fill="white" transform="translate(0.809509 0.434204)"></rect>
</clipPath>
<clipPath id="clip1_146_77215">
<rect width="135.699" height="38.7668" fill="white" transform="translate(0.545898 10.6085)"></rect>
</clipPath>
</defs>
</svg>
