<svg width="209" height="67" viewBox="0 0 209 67" fill="none" xmlns="http://www.w3.org/2000/svg">
<g clip-path="url(#clip0_146_77230)">
<g clip-path="url(#clip1_146_77230)">
<path d="M71.6355 40.9164C70.6039 40.9577 69.5785 40.7397 68.6529 40.2823C67.7274 39.8249 66.9313 39.1428 66.3375 38.2983L68.3011 36.4828C68.7171 37.0081 69.2491 37.4298 69.8556 37.7148C70.462 37.9998 71.1262 38.1403 71.7961 38.1254C73.4139 38.1254 74.1796 37.6561 74.1796 36.5693C74.1796 35.4825 73.7103 35.2355 71.1292 34.618C68.5481 34.0005 66.8562 33.1608 66.8562 30.3203C66.8562 27.7022 69.0421 26.109 71.7961 26.109C72.7351 26.0985 73.6649 26.2956 74.5189 26.6863C75.3729 27.077 76.13 27.6516 76.736 28.3691L74.76 30.3821C74.3835 29.923 73.9107 29.5522 73.375 29.2961C72.8393 29.04 72.2539 28.9048 71.6602 28.9001C70.2029 28.9001 69.7089 29.5546 69.7089 30.1968C69.7089 31.0983 70.3017 31.4318 72.4629 31.9258C74.6241 32.4198 77.0324 33.2349 77.0324 36.3593C77.0077 39.101 75.3651 40.9164 71.6355 40.9164Z" fill="black"></path>
<path d="M85.5167 40.9165C81.9476 40.9165 79.5147 38.1502 79.5147 33.5067C79.5147 28.8631 81.9847 26.0968 85.5537 26.0968C89.1228 26.0968 91.5434 28.8508 91.5434 33.5067C91.5434 38.1625 89.0611 40.9165 85.5167 40.9165ZM85.5167 28.9249C83.6148 28.9249 82.3428 30.5427 82.3428 33.4696C82.3428 36.3965 83.6642 38.0514 85.5784 38.0514C87.4926 38.0514 88.74 36.4706 88.74 33.5067C88.74 30.5427 87.4062 28.9619 85.492 28.9619L85.5167 28.9249Z" fill="black"></path>
<path d="M100.41 40.9165C97.1248 40.9165 94.9019 38.57 94.9019 34.3711V26.3314H97.6312V34.3711C97.6312 36.6682 98.6809 38.076 100.41 38.076C102.139 38.076 103.226 36.6682 103.226 34.3711V26.3314H105.955V34.3711C105.992 38.5453 103.93 40.9165 100.41 40.9165Z" fill="black"></path>
<path d="M118.836 40.7189L113.822 32.8644C113.489 32.3334 113.044 31.6295 112.859 31.2466C112.859 31.7777 112.859 33.5931 112.859 34.3835V40.7189H110.216V26.3314H112.822L117.7 33.9389C118.034 34.4699 118.478 35.1738 118.651 35.5567C118.651 35.0256 118.651 33.2226 118.651 32.4199V26.3314H121.343V40.7189H118.836Z" fill="black"></path>
<path d="M129.654 40.7189H125.579V26.3314H129.852C133.755 26.3314 136.632 28.258 136.632 33.5313C136.632 38.5824 133.162 40.7189 129.654 40.7189ZM129.753 29.1225H128.308V37.9278H129.654C132.52 37.9278 133.829 36.1618 133.829 33.5313C133.829 30.5797 132.643 29.1225 129.753 29.1225Z" fill="black"></path>
<path d="M148.488 30.5304C148.282 30.0507 147.936 29.6444 147.495 29.3646C147.054 29.0848 146.54 28.9444 146.018 28.962C143.968 28.962 142.795 30.8515 142.795 33.5314C142.795 36.2113 144.03 38.0884 146.03 38.0884C146.609 38.0903 147.175 37.9166 147.654 37.5903C148.132 37.264 148.5 36.8005 148.71 36.2607L151.044 37.7056C150.629 38.7042 149.914 39.5493 148.999 40.1245C148.083 40.6996 147.011 40.9763 145.931 40.9165C142.399 40.9165 139.929 38.0637 139.929 33.5067C139.929 28.9496 142.399 26.0968 145.993 26.0968C147.044 26.057 148.082 26.3413 148.965 26.9113C149.849 27.4813 150.536 28.3093 150.933 29.2831L148.488 30.5304Z" fill="black"></path>
<path d="M154.935 40.7189V26.3314H157.677V37.8784H164.518V40.7189H154.935Z" fill="black"></path>
<path d="M171.94 40.9165C168.371 40.9165 165.938 38.1502 165.938 33.5067C165.938 28.8631 168.408 26.0968 171.977 26.0968C175.546 26.0968 177.967 28.8508 177.967 33.5067C177.967 38.1625 175.497 40.9165 171.94 40.9165ZM171.94 28.9249C170.026 28.9249 168.754 30.5427 168.754 33.4696C168.754 36.3965 170.088 38.0514 171.99 38.0514C173.891 38.0514 175.176 36.4335 175.176 33.5067C175.176 30.5798 173.842 28.9619 171.928 28.9619L171.94 28.9249Z" fill="black"></path>
<path d="M186.859 40.9165C183.561 40.9165 181.338 38.57 181.338 34.3711V26.3314H184.068V34.3711C184.068 36.6682 185.117 38.076 186.859 38.076C188.6 38.076 189.662 36.6682 189.662 34.3711V26.3314H192.391V34.3711C192.416 38.5453 190.354 40.9165 186.859 40.9165Z" fill="black"></path>
<path d="M200.876 40.8053H196.801V26.4178H201.061C204.964 26.4178 207.854 28.3444 207.854 33.6054C207.854 38.6688 204.384 40.8053 200.876 40.8053ZM200.975 29.2089H199.53V38.0143H200.876C203.741 38.0143 205.05 36.2359 205.05 33.6054C205.05 30.6662 203.852 29.2089 200.975 29.2089Z" fill="black"></path>
<path d="M55.7411 38.57C55.6236 40.5606 54.7427 42.4292 53.2819 43.7865C51.821 45.1438 49.8929 45.8852 47.899 45.8563H29.0286C28.6148 45.8531 28.219 45.6864 27.9275 45.3926C27.636 45.0988 27.4725 44.7018 27.4725 44.2879V24.022C27.4618 23.6775 27.555 23.3378 27.7401 23.0471C27.9251 22.7563 28.1933 22.528 28.5099 22.3918C30.1527 21.4816 32.0191 21.0536 33.8944 21.1568C36.1409 21.1493 38.3475 21.7511 40.2792 22.8981C41.7738 23.7741 43.0717 24.949 44.0916 26.3494C45.1116 27.7497 45.8318 29.3454 46.2071 31.0366C46.856 30.8422 47.5304 30.7464 48.2077 30.7526C49.2214 30.7519 50.2248 30.9557 51.1578 31.3519C52.0908 31.7482 52.9342 32.3286 53.6376 33.0585C54.341 33.7884 54.8898 34.6528 55.2513 35.5998C55.6127 36.5468 55.7793 37.557 55.7411 38.57Z" fill="black"></path>
<path d="M25.0775 25.294C25.0775 25.1302 25.0124 24.9732 24.8966 24.8574C24.7808 24.7416 24.6238 24.6765 24.46 24.6765C24.2962 24.6765 24.1392 24.7416 24.0234 24.8574C23.9076 24.9732 23.8425 25.1302 23.8425 25.294C23.1324 31.9481 23.1324 38.6589 23.8425 45.313C23.8425 45.4767 23.9076 45.6338 24.0234 45.7496C24.1392 45.8654 24.2962 45.9304 24.46 45.9304C24.6238 45.9304 24.7808 45.8654 24.8966 45.7496C25.0124 45.6338 25.0775 45.4767 25.0775 45.313C26.0902 38.4465 25.6826 32.1852 25.0775 25.294Z" fill="black"></path>
<path d="M21.3722 27.6651C21.3339 27.5309 21.2529 27.4129 21.1415 27.3288C21.03 27.2448 20.8943 27.1993 20.7547 27.1993C20.6152 27.1993 20.4794 27.2448 20.368 27.3288C20.2566 27.4129 20.1756 27.5309 20.1372 27.6651C19.458 33.5364 19.458 39.4664 20.1372 45.3376C20.1659 45.4803 20.2431 45.6086 20.3556 45.7008C20.4682 45.793 20.6092 45.8434 20.7547 45.8434C20.9002 45.8434 21.0412 45.793 21.1538 45.7008C21.2664 45.6086 21.3435 45.4803 21.3722 45.3376C22.1317 39.4713 22.1317 33.5315 21.3722 27.6651Z" fill="black"></path>
<path d="M17.4821 27.06C17.4821 26.8962 17.417 26.7392 17.3012 26.6234C17.1854 26.5076 17.0284 26.4425 16.8646 26.4425C16.7008 26.4425 16.5438 26.5076 16.428 26.6234C16.3122 26.7392 16.2471 26.8962 16.2471 27.06C15.5183 33.1266 15.5183 39.2587 16.2471 45.3253C16.2471 45.489 16.3122 45.6461 16.428 45.7619C16.5438 45.8777 16.7008 45.9428 16.8646 45.9428C17.0284 45.9428 17.1854 45.8777 17.3012 45.7619C17.417 45.6461 17.4821 45.489 17.4821 45.3253C18.2416 39.2605 18.2416 33.1247 17.4821 27.06Z" fill="black"></path>
<path d="M13.6784 28.8385C13.64 28.7043 13.559 28.5862 13.4476 28.5022C13.3362 28.4181 13.2004 28.3727 13.0609 28.3727C12.9213 28.3727 12.7855 28.4181 12.6741 28.5022C12.5627 28.5862 12.4817 28.7043 12.4434 28.8385C11.7394 34.3198 11.7394 39.8687 12.4434 45.3501C12.472 45.4927 12.5492 45.6211 12.6618 45.7133C12.7744 45.8054 12.9154 45.8558 13.0609 45.8558C13.2064 45.8558 13.3474 45.8054 13.4599 45.7133C13.5725 45.6211 13.6497 45.4927 13.6784 45.3501C14.4317 39.872 14.4317 34.3166 13.6784 28.8385Z" fill="black"></path>
<path d="M9.82462 32.9509C9.79595 32.8083 9.71878 32.6799 9.60621 32.5878C9.49365 32.4956 9.35264 32.4452 9.20714 32.4452C9.06164 32.4452 8.92062 32.4956 8.80806 32.5878C8.69549 32.6799 8.61832 32.8083 8.58965 32.9509C7.67577 37.1992 8.10801 41.1018 8.58965 45.3748C8.58965 45.5385 8.65471 45.6956 8.77051 45.8114C8.88631 45.9272 9.04337 45.9923 9.20714 45.9923C9.3709 45.9923 9.52796 45.9272 9.64377 45.8114C9.75957 45.6956 9.82462 45.5385 9.82462 45.3748C10.3433 41.0277 10.7879 37.2116 9.82462 32.9509Z" fill="black"></path>
<path d="M6.00867 32.2716C5.96371 32.1437 5.88016 32.0329 5.76955 31.9545C5.65894 31.8762 5.52673 31.8341 5.39118 31.8341C5.25563 31.8341 5.12342 31.8762 5.01281 31.9545C4.9022 32.0329 4.81865 32.1437 4.77369 32.2716C4.08911 36.4094 4.08911 40.6316 4.77369 44.7695C4.80237 44.9122 4.87954 45.0405 4.99211 45.1327C5.10467 45.2249 5.24568 45.2752 5.39118 45.2752C5.53668 45.2752 5.67769 45.2249 5.79026 45.1327C5.90282 45.0405 5.98 44.9122 6.00867 44.7695C6.76203 40.6376 6.76203 36.4035 6.00867 32.2716Z" fill="black"></path>
<path d="M2.15586 34.4204C2.11091 34.2925 2.02735 34.1817 1.91674 34.1034C1.80614 34.025 1.67393 33.9829 1.53838 33.9829C1.40282 33.9829 1.27062 34.025 1.16001 34.1034C1.0494 34.1817 0.965846 34.2925 0.920888 34.4204C0.260095 37.1305 0.260095 39.9598 0.920888 42.67C0.920888 42.8338 0.985944 42.9908 1.10175 43.1066C1.21755 43.2224 1.37461 43.2875 1.53838 43.2875C1.70214 43.2875 1.8592 43.2224 1.97501 43.1066C2.09081 42.9908 2.15586 42.8338 2.15586 42.67C2.94628 39.9769 2.94628 37.1134 2.15586 34.4204Z" fill="black"></path>
</g>
</g>
<defs>
<clipPath id="clip0_146_77230">
<rect width="208.312" height="66.3844" fill="white" transform="translate(-0.00976562 0.241943)"></rect>
</clipPath>
<clipPath id="clip1_146_77230">
<rect width="207.476" height="24.7366" fill="white" transform="translate(0.377319 21.1569)"></rect>
</clipPath>
</defs>
</svg>
