<svg xmlns="http://www.w3.org/2000/svg" fill="none" viewBox="0 0 123 67" height="67" width="123">
<g clip-path="url(#clip0_146_77202)">
<path fill="black" d="M106.951 48.3887C104.558 48.2196 102.689 47.4838 101.225 46.1053C100.583 45.4799 100.046 44.7545 99.6355 43.9571C99.5763 43.8303 99.5171 43.7288 99.5086 43.7288C99.3928 43.7911 99.2799 43.8589 99.1703 43.9318L97.1068 45.1158C93.8338 46.8749 90.4679 47.9066 87.0765 48.2111C85.9771 48.2957 84.7085 48.3211 83.9304 48.2534C82.1883 48.0842 80.7759 47.5937 79.6342 46.7311C79.2076 46.382 78.8115 45.9972 78.4502 45.5809C78.2297 45.2973 78.0264 45.0008 77.8413 44.6929L77.7229 44.4815L77.3507 44.8029C75.321 46.545 73.2321 47.6276 71.1601 48.0166C70.1621 48.2027 69.0881 48.2196 68.3354 48.0673C67.864 47.9944 67.4164 47.8118 67.0286 47.5341C66.6408 47.2565 66.3236 46.8916 66.1027 46.4689C65.5952 45.5048 65.4853 44.1855 65.7221 42.2995C65.8659 41.1663 65.9758 40.5658 66.5678 38.4938C66.8384 37.3943 67.0752 36.1258 67.1598 35.297C67.2106 34.8064 67.2106 34.096 67.1598 33.7747C67.0499 33.0389 66.7792 32.616 66.2887 32.4215C66.1196 32.3539 65.6713 32.3369 65.4599 32.3961C64.555 32.6329 63.5148 33.7324 62.3307 35.6944C60.6985 38.4007 59.7936 40.921 59.5653 43.5174C59.5145 44.0586 59.523 45.5978 59.5737 46.0883C59.6329 46.6465 59.7428 47.2132 59.8951 47.6106L60.0304 47.9997C60.0473 48.0504 60.0219 48.0504 59.2185 48.0335C58.322 48.0166 57.7554 47.9743 57.138 47.8644C54.8969 47.4922 53.6283 46.5958 53.0786 44.9889C52.7403 44.0163 52.6557 42.9761 52.7657 41.42C52.8466 40.322 53.0336 39.2344 53.3238 38.1724C53.5755 37.2512 53.7592 36.3127 53.8736 35.3646C53.9243 34.8826 53.9328 33.9861 53.8905 33.7408C53.7213 32.9543 53.3661 32.5399 52.7065 32.3877C52.5711 32.3623 52.4274 32.3539 52.2329 32.3623C52.0674 32.3593 51.9032 32.391 51.7508 32.4553C50.9051 32.7936 50.0002 33.8931 49.0445 35.8382C48.0001 37.8728 47.3434 40.0839 47.1078 42.3587C46.9809 43.5766 46.9894 45.3187 47.1078 46.452C47.1754 47.0609 47.3108 47.7206 47.4461 48.0758C47.463 48.1265 47.4461 48.1265 46.7357 48.1096C45.8863 48.1114 45.0399 48.0092 44.2154 47.8052C43.1862 47.5785 42.2474 47.0516 41.5176 46.2913C41.0415 45.7247 40.6951 45.0608 40.5027 44.3462C40.4809 44.2606 40.4555 44.1759 40.4266 44.0924C40.4181 44.084 40.3082 44.177 40.1729 44.3039C38.27 46.0376 36.5532 47.1201 34.718 47.746C33.7031 48.0843 32.6037 48.2788 31.6227 48.2788C30.1849 48.2788 29.1447 47.7713 28.4766 46.7565C28.2059 46.3505 28.0537 45.9953 27.9269 45.4879C27.6731 44.473 27.7154 43.2467 28.096 41.3269L29.1701 36.9715L30.0496 33.7324C30.1849 33.1911 30.1934 33.1404 30.1934 32.8613C30.1849 31.931 29.8128 31.4066 29.1785 31.3982C29.0094 31.3982 28.9671 31.4066 28.7726 31.4997C28.485 31.6434 28.2651 31.7957 27.707 32.1932L27.2334 32.5315L27.1657 32.7429C26.7767 33.91 25.931 35.6183 24.9499 37.1745C23.8759 38.8997 22.2267 41.1493 20.8059 42.8577C18.0404 46.1729 15.6639 47.9743 13.5665 48.3549C13.1775 48.4225 12.594 48.4225 12.2979 48.3464C10.9955 48.0251 9.92993 46.7057 8.98273 44.3123C8.55035 42.851 8.14434 41.3821 7.76489 39.9061C7.36552 38.4138 6.96239 36.9225 6.55551 35.4323C6.2659 34.3214 5.82782 33.2546 5.2531 32.2608C4.91481 31.7534 4.50887 31.432 4.15367 31.3982C4.00989 31.3813 3.98452 31.3897 3.76463 31.4997C3.54475 31.6096 2.85971 32.0494 2.29308 32.4469L1.97171 32.6668C1.95479 32.6752 1.71799 32.4131 1.33742 31.9056C1.1246 31.6282 0.910343 31.352 0.694669 31.0768C0.660841 31.043 0.711584 30.9922 1.11753 30.6201C2.04356 29.7903 2.96541 28.9559 3.88303 28.1168C5.1347 26.9666 5.86202 26.3746 6.70774 25.8334C7.6042 25.2413 8.17084 25.0215 8.83895 24.9876C10.5135 24.9031 11.6298 25.8334 12.2218 28.0491C12.3656 28.5566 12.4333 28.8949 12.6447 30.2818L13.8287 36.7093C14.2769 38.5022 14.7759 39.5425 15.3087 39.8046C15.4525 39.8723 15.4948 39.8892 15.6216 39.8723C16.2136 39.83 17.034 38.9166 18.1842 37.0814C19.1145 35.5591 19.7065 34.3413 19.901 33.411C19.9517 33.1742 19.9602 33.0727 19.9602 32.5822C19.9602 32.0917 19.9517 31.9902 19.9179 31.8549C19.7826 31.3813 19.5373 31.0599 19.1567 30.8738C18.8438 30.7216 18.6324 30.6793 18.1419 30.6793C17.5656 30.6793 16.9946 30.7884 16.4589 31.0007C16.2897 31.0599 16.2052 31.0853 16.1883 31.0684C16.2241 30.9163 16.2693 30.7666 16.3236 30.6201C16.7972 29.2331 17.3384 28.083 18.0658 27.2372C18.3195 26.899 18.8438 26.3662 19.1483 26.1209C19.6557 25.698 20.3323 25.3175 20.9412 25.106C22.2521 24.624 24.0365 24.5394 25.1698 24.9115C26.709 25.4189 27.5378 26.7044 27.707 28.9371L27.7239 29.1486L27.8423 29.0386L28.8571 28.1929C30.8869 26.3323 32.0709 25.4866 33.0519 25.1991C33.2464 25.1399 33.3564 25.1314 33.6947 25.1145C34.9294 25.0722 35.7921 25.4528 36.3841 26.3577C36.9253 27.1696 37.1706 28.2183 37.0945 29.4277C37.0776 29.7659 37.0353 30.0197 36.8154 31.1191L35.513 38.4769C35.3607 39.441 35.3438 39.4748 35.3692 39.83C35.403 40.6927 35.5891 41.2255 35.9781 41.6229C36.0881 41.7429 36.2202 41.8405 36.3671 41.9105C36.7054 42.0796 37.2129 42.1304 37.5512 42.0458C37.8742 41.9348 38.1835 41.7873 38.473 41.606C39.1354 41.191 39.7557 40.7123 40.3251 40.1768C40.3583 39.9459 40.3893 39.7147 40.4181 39.4833L40.7564 37.3098L41.2469 33.8931L41.3484 32.2016C41.3146 31.7449 41.0102 31.5081 40.6465 31.6265C40.3928 31.7111 39.8515 32.0494 39.0988 32.5737C38.7859 32.7936 38.7182 32.8275 38.6929 32.8021L37.2805 31.1698C37.2805 31.1614 37.3482 31.0853 37.4328 31.0261L40.1644 28.4889L43.0399 25.9517C43.5642 25.5543 43.9702 25.3175 44.3254 25.1906C44.4776 25.1399 44.5537 25.1314 44.8328 25.1314C45.0358 25.1314 45.2557 25.1483 45.3402 25.1737C46.0591 25.3428 46.6257 25.7403 47.0909 26.4423C47.556 27.1442 47.8689 27.9307 48.0043 28.8103C48.0888 29.2923 48.0888 30.2311 48.0212 30.6286L47.9789 30.9161C47.9789 30.933 48.0635 30.8316 48.148 30.6878C48.8827 29.6324 49.7789 28.6992 50.8036 27.9223C51.21 27.6232 51.6306 27.3438 52.0637 27.085C53.5522 26.2393 55.1929 25.7741 56.8336 25.7319C58.3559 25.6811 59.506 26.0532 60.301 26.8313C60.5974 27.1288 60.8406 27.4749 61.0199 27.8546C61.3751 28.5904 61.5273 29.3769 61.5781 30.5017L61.595 31.043L62.0517 30.6455C62.3158 30.417 62.5644 30.1712 62.7959 29.9097C63.2565 29.3877 63.742 28.8882 64.2505 28.4128C65.9166 26.8905 67.6757 26.0279 69.5955 25.7911C70.0606 25.7319 70.8387 25.7065 71.2362 25.7488C72.2162 25.7884 73.147 26.1891 73.8495 26.8736C74.7797 27.8631 75.1772 29.1824 75.0842 31.0514C75.0165 32.4046 74.8136 33.6478 74.2385 36.1258C73.5365 39.238 73.4266 39.8977 73.5112 40.7434C73.5788 41.42 73.7141 41.7075 74.0609 41.8936C74.3146 42.0289 74.5345 42.0796 74.9912 42.0965C75.3633 42.1135 75.3887 42.105 75.5832 42.0373C75.8369 41.9528 76.1752 41.7836 76.4966 41.5637C76.6911 41.4369 76.7334 41.3946 76.7249 41.3608C76.6826 41.1916 76.6403 40.2613 76.6657 39.7116C76.6979 37.9431 77.1317 36.2051 77.9343 34.6288C78.5093 33.4633 79.225 32.3726 80.0655 31.3813C82.6027 28.2521 85.8164 26.307 89.3177 25.6304C90.7554 25.3597 92.4468 25.2921 93.6816 25.4612C96.0496 25.7657 97.5212 26.789 98.1808 28.5735C98.3923 29.1655 98.5191 29.7998 98.536 30.5017C98.5529 31.2037 98.4853 31.7111 98.2569 32.4131C97.7495 33.9692 96.5655 35.5253 94.688 37.166C92.4638 39.0942 89.7236 40.4389 86.6114 41.1409L85.3428 41.3946C85.309 41.3946 85.5965 41.7329 85.791 41.902C86.383 42.4687 87.1104 42.79 88.0153 42.9C88.3536 42.9423 89.6221 42.9169 90.2141 42.8577C92.709 42.6209 95.1532 41.9528 98.0286 40.718L98.6206 40.4643L98.6037 40.3205C98.5245 39.4597 98.5245 38.5934 98.6037 37.7326C98.8201 35.7119 99.5287 33.7751 100.667 32.0917C101.134 31.3802 101.658 30.7071 102.232 30.0789C103.479 28.6176 105.002 27.4164 106.714 26.5438C108.655 25.5711 110.793 25.0589 112.964 25.0468C113.954 25.0299 114.622 25.0807 115.417 25.2413C116.496 25.4523 117.516 25.9 118.402 26.5522C119.025 27.0503 119.575 27.6339 120.034 28.2859C121.176 29.8928 121.743 32.0071 121.675 34.4343C121.616 36.6332 121.167 38.6122 120.322 40.4812C119.476 42.1557 118.309 43.8895 116.905 45.1919C114.748 47.2216 112.279 48.3211 109.311 48.6255C108.93 48.6678 107.425 48.6932 107.061 48.6763L106.951 48.3887ZM108.795 43.1791C110.359 42.993 111.755 41.9105 112.922 39.94C114.095 38.0563 114.703 35.8753 114.672 33.6563C114.647 32.7936 114.546 32.1593 114.309 31.4405C114.089 30.7893 113.869 30.4002 113.573 30.1296C113.277 29.859 112.981 29.7744 112.372 29.8167C111.726 29.8558 111.093 30.0225 110.511 30.3072C109.412 30.8485 108.482 31.7618 107.636 33.1827C106.561 34.9183 105.936 36.8951 105.818 38.9336C105.75 40.033 105.919 40.9633 106.35 41.8344C106.655 42.4433 107.044 42.8746 107.475 43.0607C107.897 43.2153 108.351 43.2505 108.795 43.1791ZM84.6324 38.6122C86.9955 37.6835 89.0355 36.0844 90.5017 34.0115C90.8992 33.4195 91.1529 32.8444 91.2375 32.3623C91.2713 32.0603 91.257 31.7549 91.1952 31.4574C91.1529 31.2629 91.026 31.0176 90.9245 30.8992C90.8231 30.7808 90.6201 30.6455 90.4171 30.5863C90.0887 30.5179 89.7506 30.5093 89.4192 30.5609C88.3451 30.7893 87.288 31.6096 86.2223 33.0473C85.0637 34.6035 84.4294 36.0919 84.2772 37.555C84.2434 37.9356 84.2434 38.739 84.2772 38.739C84.3892 38.7056 84.4993 38.6661 84.607 38.6206L84.6324 38.6122ZM33.0435 21.2749C32.4515 21.2242 31.8425 21.055 31.4535 20.8267C31.2336 20.6998 30.9038 20.4038 30.76 20.2093C30.5306 19.8723 30.3802 19.4878 30.3202 19.0845C30.2611 18.635 30.2668 18.1793 30.3372 17.7314C30.4725 17.0548 30.8446 16.412 31.4704 15.7608C32.5299 14.6019 33.9769 13.8709 35.5383 13.7057C36.3841 13.6211 37.1452 13.7734 37.7118 14.2132C38.2785 14.6529 38.7267 15.3126 38.9297 15.9469C39.0143 16.2598 39.0481 16.7926 38.9804 17.1647C38.8282 18.0358 38.3461 18.8562 37.492 19.7019C36.587 20.5899 35.6145 21.0719 34.4474 21.2411C34.1091 21.2918 33.3987 21.3087 33.0604 21.2834L33.0435 21.2749Z"></path>
</g>
<defs>
<clipPath id="clip0_146_77202">
<rect transform="translate(0.447998 0.434204)" fill="white" height="66" width="122"></rect>
</clipPath>
</defs>
</svg>
