<svg width="135" height="67" viewBox="0 0 135 67" fill="none" xmlns="http://www.w3.org/2000/svg">
<g clip-path="url(#clip0_146_77205)">
<path d="M33.9731 39.6356L33.9551 39.5782L45.3962 29.1041V24.0574H27.0408V29.1041H38.0045L38.0226 29.1524L26.6932 39.6356V44.6824H45.5805V39.6356H33.9731Z" fill="black"></path>
<path d="M56.8474 23.5768C54.7302 23.5768 53.0046 23.8961 51.6708 24.5348C50.4285 25.0913 49.3819 26.0084 48.6669 27.1669C47.9831 28.333 47.5536 29.6307 47.4069 30.9745L52.9763 31.7573C53.1778 30.5706 53.5808 29.7295 54.1851 29.2339C54.8722 28.7156 55.7189 28.4536 56.5785 28.4935C57.7088 28.4935 58.5287 28.7957 59.0385 29.4001C59.5432 30.0045 59.8 30.8416 59.8 31.9446V32.4946H54.445C51.7191 32.4946 49.7609 33.099 48.5704 34.3078C47.3797 35.5166 46.7854 37.1122 46.7875 39.0946C46.7875 41.1253 47.3817 42.6364 48.5704 43.6275C49.7589 44.6188 51.2538 45.1114 53.0551 45.1052C55.2891 45.1052 57.0077 44.3367 58.2103 42.7996C58.9206 41.8548 59.4279 40.7735 59.7002 39.6234H59.9027L60.6704 44.67H65.7171V31.8902C65.7171 29.249 65.0209 27.2032 63.6289 25.7526C62.2366 24.3021 59.9763 23.5768 56.8474 23.5768ZM58.6123 39.3303C57.8115 39.9981 56.763 40.3306 55.4574 40.3306C54.3815 40.3306 53.6341 40.1422 53.2151 39.7655C53.0111 39.5872 52.8484 39.3662 52.7393 39.1181C52.6302 38.8701 52.5769 38.601 52.5836 38.33C52.5715 38.0745 52.6119 37.8192 52.7017 37.5797C52.7915 37.3402 52.9292 37.1215 53.1063 36.9369C53.2977 36.7573 53.5237 36.6184 53.7705 36.5285C54.0173 36.4387 54.2795 36.3997 54.5418 36.4141H59.809V36.7616C59.8198 37.2529 59.7174 37.74 59.51 38.1853C59.3023 38.6307 58.9953 39.0225 58.6123 39.3303Z" fill="black"></path>
<path d="M96.2307 24.0574H90.2683V44.6852H96.2307V24.0574Z" fill="black"></path>
<path d="M131.432 24.0574C129.748 24.0574 128.42 24.6517 127.449 25.8403C126.752 26.6945 126.222 27.9567 125.859 29.6269H125.684L124.905 24.0574H119.812V44.6824H125.775V34.1054C125.775 32.7717 126.087 31.7493 126.712 31.0381C127.336 30.327 128.489 29.9714 130.169 29.9714H132.432V24.0574H131.432Z" fill="black"></path>
<path d="M113.901 24.7317C112.509 23.9037 110.753 23.4907 108.634 23.4927C105.298 23.4927 102.687 24.4426 100.801 26.3424C98.9152 28.2422 97.9726 30.8612 97.9726 34.1995C97.9244 36.2178 98.365 38.2177 99.2567 40.0289C100.073 41.6428 101.344 42.9824 102.913 43.8818C104.493 44.7946 106.372 45.252 108.549 45.2538C110.433 45.2538 112.007 44.9637 113.27 44.3836C114.457 43.8625 115.491 43.0457 116.273 42.0114C117.018 40.9958 117.571 39.8529 117.905 38.6388L112.768 37.2003C112.552 37.9898 112.135 38.7101 111.559 39.2915C110.979 39.8717 110.007 40.1618 108.643 40.1618C107.021 40.1618 105.813 39.6975 105.017 38.7687C104.44 38.0978 104.077 37.1399 103.917 35.8978H117.984C118.041 35.3176 118.072 34.8311 118.072 34.4382V33.1539C118.106 31.4285 117.749 29.7178 117.029 28.1495C116.355 26.7209 115.265 25.5295 113.901 24.7317ZM108.462 28.4094C110.879 28.4094 112.25 29.599 112.575 31.9784H104.022C104.158 31.1845 104.487 30.4362 104.981 29.7995C105.764 28.8708 106.925 28.4074 108.462 28.4094Z" fill="black"></path>
<path d="M93.3125 15.7439C92.8639 15.7286 92.4169 15.8037 91.9979 15.9646C91.579 16.1256 91.1968 16.3691 90.8738 16.6807C90.5555 16.9953 90.3058 17.3726 90.1409 17.7888C89.9759 18.205 89.8992 18.6509 89.9159 19.0982C89.8997 19.5485 89.9767 19.9972 90.1416 20.4164C90.3069 20.8356 90.5565 21.2163 90.8751 21.5347C91.194 21.8531 91.5748 22.1025 91.9941 22.2672C92.4136 22.4318 92.8624 22.5083 93.3125 22.4918C93.7598 22.5088 94.206 22.4323 94.6222 22.2674C95.0383 22.1024 95.4156 21.8526 95.7301 21.5339C96.042 21.2118 96.2854 20.83 96.4458 20.4115C96.6063 19.9929 96.6805 19.5462 96.6637 19.0982C96.6843 18.6529 96.612 18.2082 96.4509 17.7924C96.2901 17.3767 96.0443 16.9991 95.7293 16.6837C95.414 16.3683 95.0368 16.1221 94.6211 15.9608C94.2055 15.7995 93.7608 15.7267 93.3156 15.7469L93.3125 15.7439Z" fill="black"></path>
<path d="M80.9974 23.4927C78.9669 23.4927 77.335 24.1303 76.102 25.4056C75.1892 26.3504 74.5196 27.7607 74.0924 29.6363H73.9019L73.1224 24.0668H68.0302V50.6118H73.9925V39.6783H74.2102C74.3922 40.4073 74.6472 41.1161 74.9717 41.7936C75.4761 42.8974 76.3033 43.8226 77.344 44.4469C78.4231 45.0358 79.6386 45.3289 80.8674 45.2962C83.3638 45.2962 85.2646 44.3242 86.5701 42.3799C87.8754 40.4358 88.5283 37.7231 88.5283 34.2418C88.5283 30.8794 87.8968 28.2472 86.6334 26.3454C85.3703 24.4436 83.4917 23.4927 80.9974 23.4927ZM81.6019 38.4393C80.9068 39.4466 79.819 39.9503 78.3382 39.9503C77.7277 39.9785 77.1191 39.8608 76.5632 39.607C76.0071 39.3531 75.5196 38.9705 75.1411 38.4907C74.3693 37.5217 73.9845 36.195 73.9866 34.5108V34.1179C73.9866 32.4075 74.3713 31.0979 75.1411 30.1893C75.9106 29.2807 76.9763 28.8315 78.3382 28.8416C79.8452 28.8416 80.94 29.32 81.623 30.277C82.306 31.2339 82.6475 32.5686 82.6475 34.2811C82.6517 36.0519 82.305 37.438 81.6078 38.4393H81.6019Z" fill="black"></path>
<path d="M24.3832 39.6354H3.75525V44.6882H24.3832V39.6354Z" fill="black"></path>
</g>
<defs>
<clipPath id="clip0_146_77205">
<rect width="128.676" height="35" fill="white" transform="translate(3.75549 15.7419)"></rect>
</clipPath>
</defs>
</svg>
